# xmcd
#
# Track frame offsets:
#	150
#	16530
#	29109
#	42456
#	55386
#	63633
#	75735
#	89097
#	99728
#	115873
#	126705
#	136943
#	150872
#	164260
#	175395
#	188787
#	206562
#	220734
#
# Disc length: 3113
#
# Revision: 2
# Processed by: cddbd v1.5.1PL0 Copyright (c) Steve Scherf et al.
# Submitted via: EasyCDDAExtractor 4.6.9.1
# Normalized: r0:TDELIM( - ),TSWAP
#
DISCID=040c2712
DTITLE=Various Artist - Ridin' West - Disc 1
DYEAR=1900
DGENRE=Country
TTITLE0=Johnny Cash - Ghost Riders In The Sky
TTITLE1=Waylon Jennings - My Heroes Have Always Been Cowboys
TTITLE2=Rex Allens - Last Round Up
TTITLE3=Roy Rogers and Dale Evans - Happy Trails
TTITLE4=Johnny Cash - The Rebel Johnny Yuma
TTITLE5=Dean Martin - My Rifle, Pony and Me
TTITLE6=Merle Haggard - Shotgun and Pistol
TTITLE7=Tex Ritter - Remember The Alamo
TTITLE8=Horse Soldiers - Ridin' West
TTITLE9=Tex Ritter - The Searchers
TTITLE10=Johnny Cash - Bonanza
TTITLE11=Johnny Horton - Comanche (The Brave Horse)
TTITLE12=Jimmie Wakely - Blue Shadows On The Trail
TTITLE13=Sons Of The Pioneers - Buffalo
TTITLE14=Don Edwards - The Cowboy Song
TTITLE15=Willie Nelson - Red Headed Stranger
TTITLE16=Merle Haggard - All American Cowboy
TTITLE17=Roy Rogers - Cowboy Heaven
EXTD=
EXTT0=
EXTT1=
EXTT2=
EXTT3=
EXTT4=
EXTT5=
EXTT6=
EXTT7=
EXTT8=
EXTT9=
EXTT10=
EXTT11=
EXTT12=
EXTT13=
EXTT14=
EXTT15=
EXTT16=
EXTT17=
PLAYORDER=
